<svg width="61" height="60" viewBox="0 0 61 60" fill="none" xmlns="http://www.w3.org/2000/svg">
<g clip-path="url(#clip0_801_18001)">
<path d="M3.50005 32.9999H8.70704C10.2107 43.8834 19.5133 51.9891 30.5001 51.9891C41.4869 51.9891 50.7895 43.8834 52.2931 32.9999H57.5001C59.1531 32.9907 60.4908 31.653 60.5 29.9999C60.5 28.343 59.1568 26.9999 57.5001 26.9999H52.2931C50.7895 16.1165 41.487 8.01074 30.5001 8.01074C19.5131 8.01074 10.2107 16.1165 8.70716 26.9999H3.50005C3.10818 26.9968 2.71968 27.0726 2.3577 27.2227C1.99571 27.3729 1.66764 27.5943 1.39302 27.8739C1.10839 28.1497 0.882531 28.4802 0.729063 28.8456C0.575595 29.211 0.497693 29.6036 0.500052 29.9999C0.500052 30.7956 0.816123 31.5586 1.37873 32.1212C1.94134 32.6839 2.7044 32.9999 3.50005 32.9999ZM2.80712 29.2879C2.89711 29.1954 3.00494 29.1222 3.12408 29.0727C3.24321 29.0232 3.37116 28.9984 3.50017 28.9998H9.60013C9.84999 29.0009 10.0912 28.9084 10.2763 28.7405C10.4614 28.5727 10.5769 28.3416 10.6001 28.0928C11.5821 17.8349 20.1993 10.0033 30.504 10.0033C40.8088 10.0033 49.4261 17.8349 50.408 28.0928C50.4312 28.3416 50.5468 28.5726 50.7318 28.7405C50.9169 28.9084 51.1581 29.0009 51.4079 28.9998H57.5001C57.7653 28.9998 58.0196 29.1052 58.2071 29.2927C58.3947 29.4803 58.5 29.7346 58.5 29.9998C58.5002 30.1331 58.4731 30.265 58.4205 30.3874C58.3679 30.5098 58.2908 30.6202 58.194 30.7118C58.1038 30.8042 57.9957 30.8773 57.8765 30.9268C57.7572 30.9763 57.6292 31.0012 57.5001 30.9999H51.4001C51.1502 30.9988 50.909 31.0913 50.7239 31.2592C50.5389 31.427 50.4234 31.6581 50.4001 31.9069C49.4181 42.1648 40.8009 49.9964 30.4961 49.9964C20.1912 49.9964 11.5742 42.1649 10.5921 31.9069C10.569 31.6595 10.4546 31.4296 10.2712 31.2619C10.0878 31.0942 9.84861 31.0008 9.60013 30.9999H3.50005C3.36874 30.9999 3.2387 30.974 3.11738 30.9238C2.99606 30.8735 2.88583 30.7999 2.79297 30.707C2.70012 30.6141 2.62646 30.5039 2.57621 30.3826C2.52596 30.2613 2.50009 30.1312 2.50009 29.9999C2.49986 29.8666 2.52699 29.7346 2.5798 29.6121C2.63261 29.4896 2.70998 29.3793 2.80712 29.2879Z" fill="#151515"/>
<path d="M30.5 48C39.6227 48.0039 47.304 41.1787 48.373 32.1189C48.5424 30.7123 48.5424 29.2905 48.373 27.8839C47.2917 18.8343 39.6171 12.0211 30.5032 12.0195C21.3893 12.018 13.7125 18.8287 12.628 27.8779C12.458 29.2855 12.458 30.7084 12.628 32.1159C13.6957 41.1766 21.3768 48.0034 30.5 48ZM14.6131 28.1159C15.5739 20.0691 22.3992 14.0115 30.5032 14.013C38.6072 14.0145 45.4302 20.0749 46.3881 28.122C46.5374 29.3696 46.5374 30.6305 46.3881 31.878V31.884C45.4273 39.9308 38.6019 45.9884 30.4979 45.9869C22.394 45.9854 15.5709 39.925 14.6131 31.8779C14.4631 30.6284 14.4631 29.3654 14.6131 28.1159Z" fill="#151515"/>
<path d="M22.3201 38.707C22.4646 39.0863 22.7206 39.4128 23.0545 39.6437C23.3883 39.8745 23.7842 39.9988 24.1901 40.0001H27.2421C27.6676 40.0007 28.0822 39.8652 28.4252 39.6133C28.7682 39.3614 29.0215 39.0063 29.1481 38.6L30.5 34.346L31.852 38.6C31.9786 39.0063 32.232 39.3614 32.5749 39.6133C32.9179 39.8652 33.3325 40.0007 33.7581 40.0001H36.8C37.2085 39.9991 37.6069 39.8736 37.9421 39.6402C38.2774 39.4068 38.5334 39.0767 38.6761 38.694L43.49 25.694C43.6018 25.392 43.6389 25.0675 43.5983 24.748C43.5578 24.4286 43.4407 24.1237 43.257 23.8592C43.0733 23.5947 42.8284 23.3785 42.5433 23.2289C42.2581 23.0793 41.941 23.0008 41.619 23H39.1871C38.7827 22.9982 38.3873 23.1198 38.0537 23.3485C37.7202 23.5772 37.4642 23.9022 37.3201 24.2801L35.2501 29.6481L33.5921 24.4001C33.4653 23.9937 33.2118 23.6386 32.8687 23.3867C32.5255 23.1348 32.1108 22.9993 31.6851 23H29.3151C28.8895 23 28.475 23.1358 28.1318 23.3876C27.7887 23.6394 27.5348 23.994 27.4071 24.4001L25.7501 29.6501L23.6801 24.2811C23.5361 23.903 23.2802 23.5779 22.9466 23.349C22.613 23.1201 22.2176 22.9984 21.813 23.0001H19.269C18.9454 23.0003 18.6268 23.0791 18.3403 23.2295C18.0539 23.38 17.8082 23.5977 17.6244 23.864C17.4406 24.1303 17.3242 24.4372 17.2851 24.7584C17.2461 25.0796 17.2855 25.4055 17.4001 25.7081L22.3201 38.707ZM21.8141 25.0001L24.914 33.0321C24.9867 33.2205 25.1148 33.3825 25.2813 33.4967C25.4479 33.611 25.6451 33.6721 25.8471 33.672H25.8781C26.0856 33.6656 26.2859 33.5948 26.4513 33.4693C26.6167 33.3439 26.739 33.1701 26.8011 32.9721L29.3151 25.0001H31.6851L34.2001 32.973C34.2624 33.1708 34.3847 33.3444 34.55 33.4696C34.7153 33.5949 34.9154 33.6656 35.1227 33.6721C35.33 33.6786 35.5341 33.6205 35.7069 33.5058C35.8797 33.3912 36.0126 33.2256 36.0872 33.0321L39.1871 25.0001H41.6191L36.8052 38H33.7582L31.4532 30.738C31.3889 30.5357 31.2619 30.3592 31.0906 30.2339C30.9193 30.1085 30.7125 30.041 30.5003 30.041C30.288 30.041 30.0812 30.1085 29.9099 30.2339C29.7386 30.3592 29.6116 30.5357 29.5473 30.738L27.2423 38H24.1913L19.2694 25.0001H21.8141Z" fill="#151515"/>
</g>
<defs>
<clipPath id="clip0_801_18001">
<rect width="60" height="60" fill="white" transform="translate(0.5)"/>
</clipPath>
</defs>
</svg>
