<svg width="43" height="56" viewBox="0 0 43 56" fill="none" xmlns="http://www.w3.org/2000/svg">
<g clip-path="url(#clip0_801_17980)">
<path d="M21.7334 0C11.7792 0 1.19995 2.61336 1.19995 7.46655V48.5334C1.19995 53.3866 11.7792 56 21.7334 56C31.6876 56 42.2665 53.3866 42.2665 48.5334V7.46655C42.2665 2.61336 31.6876 0 21.7334 0ZM40.4 24.7259V35.4665C40.4 38.1107 32.417 41.0665 21.7334 41.0665C11.0491 41.0665 3.0665 38.1107 3.0665 35.4665V24.7259C3.09074 24.7444 3.11883 24.7625 3.14306 24.7806C3.31642 24.9144 3.4946 25.0419 3.67725 25.1627C3.73098 25.198 3.78531 25.2352 3.84131 25.2708C4.06146 25.4119 4.29185 25.5507 4.53554 25.6812C4.57316 25.7017 4.61245 25.7206 4.64929 25.7411C4.87331 25.8594 5.10012 25.9723 5.32951 26.0797C5.39794 26.1116 5.46593 26.144 5.53531 26.1731C5.81241 26.2992 6.09243 26.4187 6.37514 26.5317L6.49265 26.5754C6.75725 26.678 7.02964 26.7767 7.30859 26.872L7.5451 26.9534C7.86615 27.0602 8.18907 27.1613 8.51373 27.2566L8.63028 27.2894C8.93346 27.3762 9.24453 27.4592 9.56373 27.5403L9.82623 27.6055C10.1769 27.6927 10.5331 27.7764 10.8971 27.8544L11.0034 27.8766C11.3408 27.9473 11.6842 28.015 12.0301 28.0789L12.3104 28.1316C12.6895 28.1986 13.072 28.2628 13.4609 28.3179L13.5545 28.3312C13.9185 28.3855 14.2857 28.4357 14.6558 28.4833L14.962 28.5216C15.3599 28.5701 15.7601 28.6149 16.1634 28.6548L16.2267 28.6604C16.6129 28.698 17.0012 28.7314 17.3912 28.7605L17.7057 28.7841C18.1155 28.8117 18.5243 28.8377 18.9361 28.8585H18.9806C19.3815 28.877 19.7821 28.8921 20.1819 28.9023L20.493 28.9098C20.9083 28.9187 21.3215 28.9249 21.7352 28.9249C22.1487 28.9249 22.5623 28.9187 22.9776 28.9098L23.2882 28.9023C23.6889 28.8914 24.0894 28.8767 24.4897 28.8585H24.5345C24.946 28.8381 25.3548 28.8117 25.7645 28.7841L26.079 28.7605C26.469 28.7307 26.8573 28.6973 27.2435 28.6604L27.3071 28.6548C27.7104 28.6149 28.111 28.5701 28.5082 28.5216L28.8144 28.4833C29.182 28.4356 29.5493 28.3849 29.9161 28.3312L30.0093 28.3179C30.3983 28.2584 30.7811 28.1942 31.1601 28.1315L31.4401 28.079C31.7873 28.015 32.1309 27.9473 32.4669 27.8766L32.5732 27.8544C32.9372 27.7765 33.2933 27.6927 33.6447 27.6055L33.9068 27.5403C34.2189 27.4604 34.5299 27.3768 34.8399 27.2894L34.9565 27.2566C35.2881 27.1632 35.61 27.058 35.9258 26.9534L36.1616 26.872C36.442 26.7791 36.713 26.678 36.9776 26.5754L37.0951 26.5317C37.3782 26.4196 37.6582 26.3001 37.9349 26.1731C38.0043 26.1424 38.0723 26.1098 38.1407 26.0798C38.3701 25.9723 38.5968 25.8594 38.8208 25.7411C38.8585 25.7205 38.8971 25.7017 38.9346 25.6812C39.171 25.553 39.4026 25.4161 39.6289 25.2708C39.6849 25.2352 39.7392 25.198 39.793 25.1627C39.9755 25.0417 40.1537 24.9143 40.3272 24.7806C40.3476 24.7625 40.3753 24.7444 40.4 24.7259ZM40.4 10.7259V21.4665C40.4 24.1107 32.417 27.0665 21.7334 27.0665C11.0491 27.0665 3.0665 24.1107 3.0665 21.4665V10.7259C3.09074 10.7444 3.11883 10.7625 3.14306 10.7806C3.31642 10.9144 3.4946 11.0419 3.67725 11.1627C3.73098 11.198 3.78531 11.2352 3.84131 11.2708C4.06146 11.4119 4.29185 11.551 4.53554 11.6812C4.57316 11.7017 4.61245 11.7206 4.64929 11.7411C4.87324 11.8595 5.10005 11.9724 5.32951 12.0797C5.39794 12.1116 5.46593 12.1444 5.53531 12.1731C5.807 12.2965 6.087 12.4172 6.37514 12.5317L6.49265 12.5754C6.76261 12.6799 7.03464 12.7789 7.30859 12.8724L7.5451 12.9538C7.8662 13.0604 8.18912 13.1615 8.51373 13.2569L8.63028 13.2893C8.93346 13.3762 9.24453 13.4596 9.56373 13.5406L9.82623 13.6062C10.1769 13.6927 10.5331 13.7764 10.8971 13.8544L11.0034 13.8766C11.3408 13.948 11.6842 14.015 12.0301 14.0789L12.3104 14.1316C12.6895 14.1986 13.072 14.2632 13.4609 14.3182L13.5545 14.3312C13.9185 14.3855 14.2857 14.4362 14.6558 14.4836L14.962 14.5216C15.3599 14.5705 15.7601 14.6149 16.1634 14.6555L16.2267 14.6611C16.6129 14.698 17.0012 14.7314 17.3912 14.7605L17.7057 14.7841C18.1155 14.8121 18.5243 14.8381 18.9361 14.8585H18.9806C19.3815 14.8778 19.7821 14.8921 20.1819 14.9026L20.493 14.9098C20.9083 14.9187 21.3215 14.9249 21.7352 14.9249C22.1487 14.9249 22.5623 14.9187 22.9776 14.9098L23.2882 14.9026C23.6888 14.8914 24.0893 14.8767 24.4897 14.8585H24.5345C24.946 14.8381 25.3548 14.8122 25.7645 14.7841L26.079 14.7605C26.469 14.7311 26.8573 14.6976 27.2435 14.6611L27.3071 14.6555C27.7104 14.6153 28.111 14.5708 28.5082 14.5216L28.8144 14.4836C29.1821 14.4365 29.5494 14.3857 29.9161 14.3312L30.0093 14.3182C30.3983 14.2584 30.7811 14.1942 31.1601 14.1316L31.4401 14.0789C31.7873 14.015 32.1309 13.948 32.4669 13.8766L32.5732 13.8544C32.9372 13.7771 33.2933 13.6927 33.6447 13.6062L33.9068 13.5406C34.2189 13.4606 34.5299 13.3769 34.8399 13.2894L34.9565 13.2569C35.2881 13.1633 35.61 13.058 35.9258 12.9538L36.1616 12.8724C36.442 12.7791 36.713 12.678 36.9776 12.5754L37.0951 12.5317C37.3782 12.4198 37.6583 12.3002 37.9349 12.1731C38.0043 12.1424 38.0723 12.1098 38.1407 12.0798C38.3701 11.9723 38.5968 11.8594 38.8208 11.7411C38.8585 11.7205 38.8971 11.7017 38.9346 11.6812C39.171 11.553 39.4026 11.4161 39.6289 11.2708C39.6849 11.2352 39.7392 11.198 39.793 11.1627C39.9755 11.0417 40.1537 10.9143 40.3272 10.7806C40.3476 10.7625 40.3753 10.7444 40.4 10.7259ZM21.7334 1.86655C32.417 1.86655 40.4 4.82239 40.4 7.46655C40.4 10.1107 32.417 13.0669 21.7334 13.0669C11.0491 13.0669 3.0665 10.1107 3.0665 7.46655C3.0665 4.82274 11.0491 1.86655 21.7334 1.86655ZM40.4 48.5334C40.4 51.1776 32.417 54.1334 21.7334 54.1334C11.0491 54.1334 3.0665 51.1773 3.0665 48.5334V38.7259C3.09074 38.7444 3.11883 38.7625 3.14306 38.7806C3.31642 38.9144 3.4946 39.0419 3.67725 39.1627C3.73098 39.198 3.78531 39.2352 3.84131 39.2708C4.06146 39.4119 4.29185 39.551 4.53554 39.6812C4.57316 39.7017 4.61245 39.7206 4.64929 39.7411C4.87331 39.8594 5.10012 39.9723 5.32951 40.0797C5.39794 40.1116 5.46593 40.1444 5.53531 40.1731C5.807 40.2965 6.087 40.4172 6.37514 40.5317L6.49265 40.5754C6.76261 40.6799 7.03464 40.7789 7.30859 40.8724L7.5451 40.9538C7.8662 41.0604 8.18912 41.1615 8.51373 41.2569L8.63028 41.2893C8.93346 41.3762 9.24453 41.4596 9.56373 41.5406L9.82623 41.6062C10.1769 41.6927 10.5331 41.7764 10.8971 41.8544L11.0034 41.8766C11.3408 41.948 11.6842 42.015 12.0301 42.0789L12.3104 42.1316C12.6895 42.1986 13.072 42.2632 13.4609 42.3182L13.5545 42.3312C13.9185 42.3855 14.2857 42.4362 14.6558 42.4836L14.962 42.5216C15.3599 42.5705 15.7601 42.6149 16.1634 42.6555L16.2267 42.6611C16.6129 42.698 17.0012 42.7314 17.3912 42.7605L17.7057 42.7841C18.1155 42.8121 18.5243 42.8381 18.9361 42.8585H18.9806C19.3815 42.8778 19.7821 42.8921 20.1819 42.9026L20.493 42.9098C20.9083 42.9187 21.3215 42.9249 21.7352 42.9249C22.1487 42.9249 22.5623 42.9187 22.9776 42.9098L23.2882 42.9026C23.6888 42.8914 24.0893 42.8767 24.4897 42.8586H24.5345C24.946 42.8381 25.3548 42.8121 25.7645 42.7841L26.079 42.7605C26.469 42.7311 26.8573 42.6976 27.2435 42.6611L27.3071 42.6555C27.7104 42.6149 28.111 42.5705 28.5082 42.5216L28.8144 42.4836C29.1821 42.436 29.5493 42.3852 29.9161 42.3312L30.0093 42.3182C30.3983 42.2584 30.7811 42.1942 31.1601 42.1316L31.4401 42.0789C31.7873 42.015 32.1309 41.948 32.4669 41.8766L32.5732 41.8544C32.9372 41.7771 33.2933 41.6927 33.6447 41.6062L33.9068 41.5406C34.2189 41.4606 34.5299 41.3769 34.8399 41.2894L34.9565 41.2569C35.2881 41.1633 35.61 41.058 35.9258 40.9538L36.1616 40.8724C36.442 40.7791 36.713 40.678 36.9776 40.5754L37.0951 40.5317C37.3782 40.4198 37.6583 40.3002 37.9349 40.1731C38.0043 40.1424 38.0723 40.1098 38.1407 40.0798C38.3701 39.9723 38.5968 39.8594 38.8208 39.7411C38.8585 39.7205 38.8971 39.7017 38.9346 39.6812C39.171 39.553 39.4026 39.4161 39.6289 39.2708C39.6849 39.2352 39.7392 39.198 39.793 39.1627C39.9755 39.0417 40.1537 38.9143 40.3272 38.7806C40.3514 38.7625 40.3795 38.7444 40.4037 38.7259L40.4 48.5334Z" fill="#151515"/>
<path d="M11.4669 10.267C14.1275 10.267 16.1331 9.06282 16.1331 7.46664C16.1331 5.87082 14.1275 4.66699 11.4669 4.66699C8.80572 4.66699 6.80005 5.87082 6.80005 7.46664C6.80005 9.06282 8.80572 10.267 11.4669 10.267ZM11.4669 6.53354C13.2736 6.53354 14.2666 7.23424 14.2666 7.46664C14.2666 7.69904 13.2736 8.40009 11.4669 8.40009C9.65955 8.40009 8.6666 7.69904 8.6666 7.46664C8.6666 7.23424 9.6599 6.53354 11.4669 6.53354Z" fill="#151515"/>
</g>
<defs>
<clipPath id="clip0_801_17980">
<rect width="42" height="56" fill="white" transform="translate(0.5)"/>
</clipPath>
</defs>
</svg>
