<svg width="250" height="250" viewBox="0 0 250 250" fill="none" xmlns="http://www.w3.org/2000/svg">
<g clip-path="url(#clip0_3036_151)">
<circle cx="125" cy="125" r="122.5" stroke="#151515" stroke-width="5"/>
<g clip-path="url(#clip1_3036_151)">
<path d="M174.563 103.685H166.659L168.296 98.7902C168.508 98.1565 168.46 97.4645 168.162 96.8664C167.864 96.2684 167.34 95.8133 166.707 95.6011C166.393 95.4958 166.061 95.4535 165.731 95.4764C165.401 95.4994 165.079 95.5872 164.783 95.7348C164.486 95.8824 164.222 96.087 164.005 96.3369C163.788 96.5867 163.622 96.8768 163.518 97.1908L161.345 103.685H145.167L152.601 81.4642C156.912 84.2404 161.991 85.7481 167.385 85.6315L166.259 88.9966C166.058 89.6275 166.113 90.3124 166.412 90.9031C166.712 91.4938 167.232 91.9429 167.86 92.1531C168.488 92.3633 169.173 92.3178 169.768 92.0264C170.363 91.735 170.819 91.2211 171.038 90.596L172.956 84.8629C190.141 80.4711 195.951 60.4452 184.136 47.3951C182.842 45.9653 180.488 46.4648 179.879 48.2863L174.005 65.8464L165.325 67.6128L159.455 60.9794L165.698 42.319C165.83 41.9256 165.862 41.5057 165.792 41.0967C165.723 40.6877 165.553 40.3022 165.299 39.9745C165.044 39.6472 164.713 39.3876 164.334 39.2188C163.955 39.0499 163.54 38.977 163.127 39.0064C142.894 40.4673 134.013 63.6941 148.414 78.0971L143.773 91.97C109.283 92.8021 113.763 106.296 91.797 109.102C91.1758 106.016 88.4453 103.685 85.1797 103.685H66.4307C62.7082 103.685 59.6797 106.714 59.6797 110.436V154.979C59.6797 158.702 62.7082 161.73 66.4307 161.73H85.1797C88.6183 161.73 91.459 159.144 91.8732 155.816C103.434 156.583 104.42 160.485 120.492 161.557L119.473 164.605C110.652 165.844 103.267 171.674 100.518 179.894C97.9406 187.597 99.8864 196.3 105.595 202.606C106.886 204.032 109.242 203.539 109.853 201.714L115.727 184.154L124.407 182.388L130.276 189.022L124.034 207.681C123.467 209.375 124.8 211.121 126.604 210.994C145.586 209.624 155.021 188.829 143.144 173.972L147.281 161.607H160.487C165.521 161.607 169.617 157.512 169.617 152.477C169.617 150.779 169.151 149.187 168.34 147.823C173.695 145.841 175.936 139.485 173.032 134.602C178.387 132.62 180.628 126.264 177.724 121.381C181.205 120.093 183.693 116.739 183.693 112.815C183.693 107.781 179.597 103.685 174.563 103.685ZM159.585 44.7045L154.214 60.7597C154.074 61.1792 154.046 61.6282 154.135 62.0617C154.223 62.4951 154.423 62.8978 154.716 63.2291L162.514 72.0418C162.807 72.3728 163.182 72.6209 163.602 72.7612C164.021 72.9015 164.47 72.9291 164.903 72.8413L176.434 70.4948C176.868 70.4067 177.27 70.206 177.602 69.9129C177.933 69.6198 178.181 69.2447 178.321 68.8252L183.096 54.5525C185.47 58.8878 185.99 63.8617 184.435 68.5084C179.242 84.0294 156.488 84.5854 148.588 69.9936C143.044 59.7529 148.362 47.8153 159.585 44.7045ZM142.476 193.929C140.613 199.496 135.967 203.681 130.146 205.295L135.517 189.24C135.658 188.821 135.685 188.372 135.597 187.938C135.509 187.505 135.308 187.102 135.015 186.771L127.218 177.957C126.924 177.626 126.549 177.378 126.13 177.238C125.71 177.097 125.261 177.07 124.828 177.158L113.297 179.504C112.864 179.592 112.461 179.793 112.13 180.086C111.799 180.379 111.551 180.754 111.41 181.174L106.635 195.446C98.6713 180.9 113.038 164.931 129.647 170.488C139.846 173.904 145.666 184.391 142.476 193.929ZM124.846 164.427L125.746 161.735C125.746 161.735 127.855 161.607 141.967 161.607L139.161 169.993C134.969 166.667 129.898 164.794 124.846 164.427ZM174.563 116.906H144.292C142.9 116.906 141.772 118.034 141.772 119.426C141.772 120.818 142.9 121.946 144.292 121.946H169.872C172.127 121.946 173.962 123.78 173.962 126.036C173.962 128.292 172.127 130.127 169.872 130.127H144.292C143.961 130.127 143.633 130.192 143.328 130.319C143.022 130.445 142.744 130.631 142.51 130.865C142.276 131.099 142.09 131.377 141.964 131.683C141.837 131.988 141.772 132.316 141.772 132.647C141.772 132.978 141.837 133.306 141.964 133.611C142.09 133.917 142.276 134.195 142.51 134.429C142.744 134.663 143.022 134.849 143.328 134.975C143.633 135.102 143.961 135.167 144.292 135.167H165.18C167.435 135.167 169.27 137.001 169.27 139.257C169.27 141.513 167.435 143.348 165.18 143.348H144.292C143.961 143.348 143.633 143.413 143.328 143.54C143.022 143.667 142.744 143.852 142.51 144.086C142.276 144.32 142.09 144.598 141.964 144.904C141.837 145.21 141.772 145.537 141.772 145.868C141.772 146.199 141.837 146.527 141.964 146.832C142.09 147.138 142.276 147.416 142.51 147.65C142.744 147.884 143.022 148.07 143.328 148.196C143.633 148.323 143.961 148.388 144.292 148.388H160.488C162.743 148.388 164.578 150.223 164.578 152.478C164.578 154.734 162.743 156.569 160.488 156.569C160.324 156.569 129.88 156.564 129.716 156.577C129.576 156.588 115.478 157.637 103.737 152.985C103.292 152.811 98.2419 151.146 91.93 150.77V125.131C91.93 123.739 90.8019 122.611 89.4102 122.611C88.0184 122.611 86.8903 123.739 86.8903 125.131V154.98C86.8898 155.434 86.7093 155.869 86.3885 156.19C86.0677 156.51 85.6327 156.691 85.179 156.691H66.4307C65.977 156.691 65.542 156.51 65.2212 156.19C64.9004 155.869 64.72 155.434 64.7194 154.98V110.436C64.72 109.982 64.9004 109.547 65.2212 109.226C65.542 108.906 65.977 108.725 66.4307 108.725H85.1797C85.6334 108.725 86.0683 108.906 86.3892 109.226C86.71 109.547 86.8904 109.982 86.891 110.436V117.402C86.891 118.794 88.019 119.922 89.4108 119.922C90.8026 119.922 91.9307 118.794 91.9307 117.402V114.168C115.664 111.47 110.995 98.2654 142.069 97.0638L139.278 105.405C139.151 105.784 139.116 106.188 139.176 106.582C139.236 106.977 139.389 107.352 139.622 107.677C139.856 108.001 140.163 108.265 140.519 108.447C140.874 108.629 141.268 108.724 141.667 108.725H174.564C176.819 108.725 178.654 110.559 178.654 112.815C178.654 115.071 176.819 116.906 174.563 116.906Z" fill="#151515"/>
</g>
</g>
<defs>
<clipPath id="clip0_3036_151">
<rect width="250" height="250" fill="white"/>
</clipPath>
<clipPath id="clip1_3036_151">
<rect width="172" height="172" fill="white" transform="translate(39 39)"/>
</clipPath>
</defs>
</svg>
