<svg width="61" height="60" viewBox="0 0 61 60" fill="none" xmlns="http://www.w3.org/2000/svg">
<circle cx="30.5" cy="30" r="29.5" stroke="#151515"/>
<path d="M21.6123 32.732C21.6123 29.476 18.8403 28.376 16.6403 27.716C14.4623 27.056 13.3623 26.616 13.3623 25.318C13.3623 24.064 14.6823 23.58 16.0463 23.58C17.6743 23.58 19.2363 24.416 20.1383 25.12L21.5903 22.81C20.2483 21.908 18.4223 21.072 16.2003 21.072C12.3943 21.072 10.2383 22.898 10.2383 25.626C10.2383 28.552 12.3943 29.542 14.8583 30.29C17.5203 31.104 18.4883 31.742 18.4883 33.062C18.4883 34.14 17.4323 34.866 15.6723 34.866C14.0223 34.866 12.3723 34.074 11.0523 33.084L9.62234 35.504C11.1843 36.714 13.2303 37.462 15.5183 37.462C19.0383 37.462 21.6123 35.988 21.6123 32.732ZM37.6412 37L32.2072 21.49H28.7752L22.8352 37H26.0032L27.1032 33.964H33.3952L34.3632 37H37.6412ZM32.6252 31.5H27.9832L29.1712 28.2C29.6772 26.77 30.4252 24.24 30.4252 24.24C30.4252 24.24 31.1512 26.77 31.5912 28.2L32.6252 31.5ZM51.9271 37L47.7691 30.51C49.2871 29.938 50.8051 28.838 50.8051 26.11C50.8051 23.074 48.5611 21.49 45.0631 21.49H39.8491V37H42.8851V30.928H44.4691L48.4291 37H51.9271ZM47.6811 26.11C47.6811 27.716 46.7571 28.42 44.9311 28.42H42.8851V23.998H45.2391C46.8671 23.998 47.6811 24.724 47.6811 26.11Z" fill="black"/>
</svg>
