<svg width="61" height="60" viewBox="0 0 61 60" fill="none" xmlns="http://www.w3.org/2000/svg">
<path d="M50.2408 47.4421H10.7591C8.53614 47.4424 6.39859 46.5857 4.79118 45.0502C3.18378 43.5146 2.23029 41.4184 2.12908 39.1978C2.02788 36.9771 2.78674 34.8029 4.24781 33.1274C5.70888 31.452 7.75964 30.4044 9.97346 30.2026C10.094 28.43 10.6207 26.7088 11.5128 25.1722C12.4048 23.6356 13.6384 22.3248 15.118 21.3411C16.5976 20.3575 18.2837 19.7274 20.0458 19.4995C21.8079 19.2716 23.5988 19.4521 25.2799 20.0269C26.8845 16.9718 29.5605 14.6166 32.7948 13.4133C36.029 12.2099 39.5937 12.243 42.805 13.5063C46.0163 14.7696 48.6482 17.1741 50.1956 20.2585C51.7431 23.3429 52.0973 26.8901 51.1902 30.2196C53.3862 30.4614 55.406 31.5355 56.8343 33.2209C58.2627 34.9063 58.9909 37.0749 58.8693 39.2808C58.7477 41.4866 57.7855 43.5621 56.1806 45.0802C54.5756 46.5984 52.45 47.4431 50.2408 47.4421ZM21.521 21.0275C18.8828 21.0305 16.3534 22.0799 14.4879 23.9454C12.6223 25.8109 11.5729 28.3403 11.5699 30.9786C11.5699 31.1936 11.4845 31.3998 11.3325 31.5519C11.1804 31.704 10.9742 31.7894 10.7591 31.7894C8.89839 31.7894 7.11385 32.5286 5.79811 33.8443C4.48236 35.16 3.74319 36.9446 3.74319 38.8053C3.74319 40.6661 4.48236 42.4506 5.79811 43.7663C7.11385 45.0821 8.89839 45.8213 10.7591 45.8213H50.2408C51.1621 45.8213 52.0744 45.6398 52.9256 45.2872C53.7769 44.9346 54.5503 44.4178 55.2018 43.7663C55.8533 43.1149 56.3701 42.3414 56.7226 41.4902C57.0752 40.639 57.2567 39.7267 57.2567 38.8053C57.2567 37.884 57.0752 36.9716 56.7226 36.1204C56.3701 35.2692 55.8533 34.4958 55.2018 33.8443C54.5503 33.1928 53.7769 32.676 52.9256 32.3234C52.0744 31.9708 51.1621 31.7894 50.2408 31.7894H50.1078C49.9785 31.7893 49.8511 31.7583 49.7363 31.699C49.6214 31.6396 49.5224 31.5537 49.4475 31.4483C49.3726 31.343 49.324 31.2212 49.3057 31.0932C49.2874 30.9652 49.3 30.8347 49.3424 30.7126C49.8114 29.3841 50.0542 27.9863 50.0608 26.5775C50.0627 23.7514 49.0984 21.0096 47.3279 18.8069C45.5574 16.6041 43.0871 15.0728 40.3267 14.467C37.5663 13.8612 34.6818 14.2173 32.1516 15.4762C29.6214 16.7351 27.5976 18.8211 26.4159 21.3883C26.3274 21.5786 26.1685 21.7273 25.9727 21.8029C25.7769 21.8785 25.5593 21.8752 25.3659 21.7937C24.1483 21.2842 22.8409 21.0236 21.521 21.0275Z" fill="#151515"/>
<path d="M26.1152 37.1351L27.5025 37.4854C27.2851 38.5048 26.7328 39.4222 25.9336 40.0914C25.1416 40.7019 24.1625 41.0191 23.163 40.9889C22.1966 41.0317 21.2386 40.7919 20.4063 40.2989C19.6769 39.8129 19.1132 39.1159 18.7903 38.3011C18.4176 37.4117 18.2292 36.4559 18.2365 35.4916C18.2135 34.5031 18.4282 33.5235 18.8625 32.6351C19.2535 31.8498 19.8762 31.2034 20.6463 30.7832C21.4257 30.359 22.3008 30.1413 23.1882 30.1508C24.1339 30.1193 25.0637 30.4009 25.833 30.9519C26.5679 31.5151 27.0938 32.3075 27.3274 33.2035L25.9619 33.5278C25.7919 32.8768 25.4235 32.2948 24.9079 31.8624C24.4003 31.5003 23.7869 31.3167 23.1638 31.3403C22.4463 31.3144 21.739 31.5171 21.1441 31.9192C20.6064 32.3011 20.2065 32.8466 20.0041 33.4743C19.7851 34.1226 19.6739 34.8025 19.6749 35.4868C19.6586 36.2824 19.7908 37.074 20.0649 37.8211C20.2881 38.441 20.7156 38.9666 21.2771 39.3114C21.8146 39.6375 22.4321 39.8082 23.0609 39.8043C23.7781 39.8249 24.4788 39.5863 25.0344 39.1322C25.6103 38.608 25.9914 37.904 26.1152 37.1351Z" fill="#151515"/>
<path d="M23.1621 41.0934C22.1762 41.135 21.1994 40.8897 20.3502 40.3872C19.6049 39.8889 19.0284 39.1762 18.697 38.3432C18.3197 37.441 18.1285 36.4718 18.1351 35.494C18.113 34.4895 18.3313 33.4943 18.7715 32.5913C19.1722 31.7897 19.8074 31.129 20.5926 30.6972C21.3882 30.2638 22.2813 30.0406 23.1872 30.0486C24.155 30.0182 25.106 30.3068 25.8937 30.8699C26.644 31.449 27.1805 32.261 27.4188 33.1783L27.4488 33.2805L25.8872 33.6477L25.8588 33.5586C25.6935 32.9286 25.3372 32.3652 24.8388 31.9459C24.3483 31.5979 23.7566 31.4214 23.1556 31.444C22.4592 31.4192 21.7728 31.615 21.1943 32.0034C20.6749 32.3739 20.2883 32.9015 20.0915 33.5083C19.8763 34.1462 19.7668 34.815 19.7672 35.4883C19.7518 36.271 19.8816 37.0499 20.1499 37.7853C20.3657 38.3836 20.7779 38.8912 21.3191 39.2253C21.84 39.5411 22.4379 39.7069 23.047 39.7045C23.7403 39.7238 24.4176 39.4937 24.9556 39.0559C25.5177 38.5481 25.8915 37.8652 26.0161 37.118L26.038 37.0159L27.6248 37.4164L27.5997 37.5145C27.3758 38.5554 26.8111 39.4918 25.9951 40.1756C25.1844 40.7983 24.1839 41.1225 23.1621 41.0934ZM23.1832 30.2553C22.3129 30.247 21.4549 30.4605 20.6899 30.8756C19.94 31.2878 19.3336 31.9188 18.9515 32.6845C18.526 33.5587 18.3156 34.5219 18.3378 35.494C18.3313 36.4449 18.5172 37.3873 18.8842 38.2645C19.1999 39.0599 19.7499 39.7405 20.4613 40.2161C21.2775 40.697 22.2156 40.931 23.1621 40.8899C24.1386 40.9181 25.095 40.6089 25.8702 40.0142C26.6252 39.3815 27.154 38.5203 27.3767 37.5607L26.1905 37.2607C26.0453 38.013 25.657 38.6967 25.0853 39.2067C24.5109 39.6747 23.7877 39.9212 23.047 39.9015C22.4011 39.904 21.767 39.7284 21.2145 39.394C20.6346 39.0383 20.1921 38.4967 19.9594 37.8575C19.6813 37.0987 19.5468 36.2947 19.5629 35.4867C19.5622 34.7914 19.675 34.1007 19.897 33.4418C20.1069 32.7944 20.5197 32.2318 21.0742 31.8372C21.6865 31.4237 22.4139 31.2145 23.1524 31.2396C23.7975 31.2165 24.4322 31.4069 24.958 31.7813C25.4689 32.2029 25.8406 32.7689 26.0242 33.4053L27.1943 33.1296C26.9559 32.2957 26.4555 31.5606 25.7672 31.0329C25.0146 30.4975 24.1071 30.224 23.184 30.2545L23.1832 30.2553ZM28.7883 35.7088C28.7005 34.2151 29.2041 32.7469 30.1902 31.6215C30.6546 31.1337 31.2172 30.7498 31.8408 30.4953C32.4644 30.2408 33.1349 30.1214 33.808 30.145C34.7272 30.1321 35.6323 30.3719 36.4245 30.8383C37.1955 31.2935 37.8142 31.967 38.2026 32.7737C38.6215 33.6515 38.8308 34.6147 38.814 35.5872C38.8308 36.5758 38.61 37.5541 38.1702 38.4396C37.7721 39.2464 37.1358 39.9115 36.3475 40.345C35.5685 40.7751 34.6922 40.9984 33.8024 40.9937C32.8711 41.0086 31.9544 40.7608 31.1575 40.2786C30.3913 39.8139 29.7776 39.1356 29.3915 38.3269C28.9924 37.512 28.786 36.6162 28.7883 35.7088ZM30.2178 35.7299C30.1565 36.8193 30.5217 37.8898 31.2361 38.7145C31.5686 39.0602 31.9676 39.3351 32.4091 39.5225C32.8505 39.7099 33.3254 39.806 33.805 39.805C34.2846 39.804 34.7591 39.706 35.1998 39.5167C35.6405 39.3275 36.0384 39.051 36.3694 38.704C37.0925 37.8296 37.4545 36.7122 37.3813 35.5799C37.3984 34.813 37.2511 34.0513 36.9491 33.3461C36.6849 32.7371 36.2443 32.2212 35.6842 31.8648C35.1246 31.5132 34.4754 31.3307 33.8145 31.3394C33.3462 31.3323 32.881 31.4181 32.446 31.5917C32.011 31.7654 31.6146 32.0236 31.2799 32.3513C30.5724 33.0259 30.2178 34.1521 30.2178 35.7299Z" fill="#151515"/>
<path d="M33.7998 41.0935C32.8498 41.1075 31.9149 40.8547 31.1015 40.3637C30.3196 39.888 29.6928 39.1953 29.2974 38.37C28.8932 37.5412 28.6843 36.6309 28.6869 35.7089C28.6017 34.1903 29.1145 32.6987 30.1155 31.5535C30.5901 31.0565 31.1642 30.6652 31.8003 30.4054C32.4365 30.1455 33.1203 30.0228 33.8071 30.0454C34.7445 30.0337 35.6672 30.2785 36.4755 30.7532C37.262 31.2187 37.8936 31.9061 38.2909 32.7291C38.7159 33.6211 38.9287 34.5993 38.9128 35.5872C38.9285 36.5918 38.7042 37.5855 38.2585 38.4859C37.8494 39.3092 37.1988 39.9881 36.3936 40.4318C35.5994 40.8694 34.7066 41.0971 33.7998 41.0935ZM33.8071 30.2481C33.148 30.226 32.4916 30.3433 31.8809 30.5923C31.2702 30.8413 30.7189 31.2163 30.2631 31.6929C29.2987 32.801 28.806 34.2423 28.8904 35.7089C28.8883 36.6 29.0902 37.4798 29.4807 38.2808C29.8595 39.0712 30.4598 39.7345 31.2085 40.1902C31.9908 40.6618 32.8898 40.9042 33.8031 40.8899C34.6753 40.8941 35.5343 40.6759 36.2988 40.2559C37.0696 39.8307 37.692 39.18 38.0825 38.391C38.5136 37.5193 38.7302 36.5572 38.7142 35.5848C38.7302 34.6278 38.5246 33.6802 38.1134 32.8159C37.733 32.0283 37.1289 31.3704 36.3766 30.9243C35.5978 30.4687 34.7093 30.2349 33.8071 30.2481ZM33.7925 39.9064C33.2995 39.9173 32.8099 39.8228 32.3563 39.6293C31.9027 39.4358 31.4956 39.1477 31.1623 38.7843C30.4318 37.9397 30.0569 36.845 30.1163 35.73C30.1163 34.131 30.4844 32.9732 31.2101 32.2791C31.5545 31.9431 31.9618 31.6783 32.4087 31.4999C32.8556 31.3216 33.3333 31.2331 33.8144 31.2397C34.4941 31.2316 35.1618 31.4194 35.7377 31.7805C36.314 32.1475 36.7679 32.6779 37.0415 33.304C37.3483 34.0228 37.4987 34.7986 37.4825 35.5799C37.5547 36.7375 37.1836 37.879 36.4447 38.7729C36.1104 39.1415 35.7004 39.4336 35.2428 39.6292C34.7852 39.8248 34.29 39.9194 33.7925 39.9064ZM33.8136 31.4424C33.3583 31.4362 32.9062 31.52 32.4833 31.6887C32.0603 31.8575 31.6748 32.108 31.3488 32.4259C30.6652 33.0745 30.3182 34.1886 30.3182 35.7308C30.2594 36.7942 30.6151 37.839 31.3107 38.6456C31.6335 38.9811 32.0209 39.2477 32.4496 39.4296C32.8782 39.6115 33.3392 39.7047 33.8048 39.7038C34.2704 39.7029 34.731 39.6078 35.1589 39.4243C35.5868 39.2408 35.9731 38.9726 36.2947 38.6359C36.9979 37.7786 37.3497 36.6865 37.279 35.5799C37.295 34.8284 37.1508 34.0821 36.8558 33.3908C36.5984 32.801 36.1713 32.3012 35.629 31.9548C35.0859 31.6133 34.456 31.4352 33.8144 31.4416L33.8136 31.4424ZM45.3474 40.6467V41.3432H41.4458C41.4388 41.1716 41.4664 41.0004 41.5269 40.8397C41.6391 40.5524 41.8004 40.2868 42.0036 40.0548C42.293 39.7305 42.6102 39.4321 42.9515 39.1629C43.4294 38.7961 43.8646 38.3767 44.2488 37.9127C44.4516 37.6657 44.5701 37.3602 44.5869 37.041C44.5899 36.9045 44.564 36.769 44.5109 36.6432C44.4578 36.5174 44.3787 36.4043 44.2788 36.3113C44.1712 36.2114 44.0448 36.1337 43.907 36.083C43.7693 36.0322 43.6228 36.0092 43.4761 36.0154C43.3225 36.0082 43.169 36.0323 43.0251 36.0863C42.8811 36.1402 42.7496 36.2228 42.6385 36.3291C42.53 36.4454 42.446 36.5822 42.3914 36.7315C42.3368 36.8808 42.3128 37.0395 42.3207 37.1983L41.5763 37.1221C41.5935 36.6396 41.8004 36.1833 42.152 35.8524C42.5293 35.5458 43.0068 35.3901 43.4923 35.4154C43.985 35.3889 44.4682 35.5583 44.8366 35.8864C44.9981 36.0345 45.1262 36.2151 45.2126 36.4164C45.299 36.6177 45.3416 36.835 45.3377 37.054C45.3369 37.2936 45.2875 37.5305 45.1925 37.7505C45.0721 38.0151 44.9097 38.2585 44.7117 38.4713C44.3623 38.8414 43.989 39.1884 43.5944 39.5099C43.162 39.8748 42.8828 40.1224 42.7569 40.2527C42.6416 40.3724 42.5391 40.504 42.4512 40.6451L45.3474 40.6467Z" fill="#151515"/>
<path d="M45.5509 41.5458H41.2536L41.2447 41.3512C41.2382 41.1526 41.2715 40.9546 41.3428 40.7691C41.4619 40.4601 41.634 40.1742 41.8512 39.9242C42.148 39.5899 42.4736 39.2823 42.8242 39.0048C43.2898 38.6478 43.714 38.2398 44.089 37.7885C44.2657 37.5759 44.3704 37.3128 44.3882 37.0369C44.3911 36.9286 44.3709 36.8208 44.329 36.7209C44.2871 36.6209 44.2243 36.531 44.145 36.4572C44.0564 36.3744 43.9522 36.3102 43.8384 36.2685C43.7246 36.2267 43.6036 36.2081 43.4825 36.214C43.3557 36.2067 43.2287 36.2256 43.1095 36.2693C42.9903 36.3131 42.8813 36.3809 42.7893 36.4685C42.6991 36.5664 42.6296 36.6815 42.5851 36.8069C42.5407 36.9323 42.5221 37.0655 42.5306 37.1983V37.4212L41.3647 37.3053L41.3825 37.1058C41.4043 36.5714 41.6359 36.0671 42.0271 35.7023C42.4412 35.3637 42.966 35.1903 43.5004 35.2158C44.045 35.1896 44.5781 35.3789 44.9842 35.7429C45.1643 35.9104 45.3071 36.1141 45.4032 36.3405C45.4994 36.567 45.5466 36.8112 45.542 37.0572C45.5407 37.3239 45.4856 37.5875 45.3798 37.8323C45.2503 38.1172 45.076 38.3795 44.8633 38.6091C44.5083 38.9863 44.1292 39.34 43.7282 39.668C43.3025 40.0248 43.026 40.2696 42.9069 40.3977L42.8598 40.448H45.5501L45.5509 41.5458ZM41.659 41.1404H45.1455V40.8494H42.0944L42.2809 40.5412C42.376 40.3877 42.4872 40.2448 42.6125 40.1148C42.7439 39.9761 43.0236 39.728 43.4679 39.3558C43.8544 39.0404 44.2203 38.7005 44.5633 38.3383C44.7465 38.1418 44.897 37.9174 45.0093 37.6734C45.0933 37.4785 45.1372 37.2686 45.1382 37.0564C45.1433 36.8652 45.1073 36.6752 45.0328 36.4991C44.9582 36.3231 44.8468 36.165 44.706 36.0356C44.5425 35.8905 44.352 35.7792 44.1454 35.708C43.9388 35.6367 43.7201 35.607 43.502 35.6204C43.066 35.5967 42.6365 35.7344 42.2955 36.0072C42.0279 36.252 41.8568 36.5845 41.8131 36.9445L42.1374 36.9785C42.1651 36.6815 42.2936 36.4028 42.5015 36.1888C42.6311 36.0635 42.7848 35.9658 42.9533 35.9017C43.1218 35.8375 43.3016 35.8084 43.4817 35.8158C43.6545 35.8094 43.8269 35.8373 43.9889 35.8979C44.1509 35.9584 44.2992 36.0504 44.4255 36.1685C44.5448 36.28 44.6393 36.4152 44.703 36.5655C44.7667 36.7158 44.7981 36.8778 44.7952 37.041C44.7788 37.4035 44.6464 37.7511 44.4174 38.0326C44.0234 38.5113 43.5756 38.9431 43.0828 39.3194C42.7509 39.5816 42.4425 39.8721 42.1609 40.1877C41.9731 40.4021 41.8239 40.6473 41.7198 40.9126C41.6925 40.9863 41.6729 41.0627 41.6615 41.1404H41.659Z" fill="#151515"/>
</svg>
