<svg width="250" height="250" viewBox="0 0 250 250" fill="none" xmlns="http://www.w3.org/2000/svg">
<g clip-path="url(#clip0_3036_9)">
<circle cx="125" cy="125" r="122.5" stroke="#151515" stroke-width="5"/>
<path d="M73.9255 161.609L69.4846 156.115L65.5195 150.081L63.8253 146.859C63.09 145.438 63.6451 143.694 65.0582 142.958C66.4784 142.223 68.223 142.771 68.9583 144.191L70.357 146.916L73.9833 152.482L78.4241 157.975C79.4262 159.215 79.2316 161.032 77.9916 162.041C76.7516 163.044 74.9276 162.849 73.9255 161.609ZM56.4358 124.171L56.3493 123.717L55.7148 116.832L55.7437 109.933L56.1186 106.054C56.2844 104.468 57.6975 103.307 59.2907 103.466C60.8768 103.632 62.0374 105.045 61.8716 106.638L61.5256 109.961L61.4751 116.313L62.0302 122.65L62.1167 123.104C62.4123 124.676 61.3742 126.182 59.8098 126.478C58.2381 126.774 56.7241 125.743 56.4358 124.171ZM62.5637 82.804L65.6565 76.9645L69.5712 71.0313L72.2242 67.7654C73.2407 66.5326 75.0574 66.3524 76.2974 67.3617C77.5302 68.3782 77.7104 70.1949 76.7011 71.4349L74.3942 74.2249L70.7679 79.668L67.6751 85.5075C66.9254 86.9205 65.1735 87.4613 63.7604 86.7115C62.3546 85.9617 61.8139 84.217 62.5637 82.804ZM90.2691 52.1213L91.0404 51.6166L97.3341 48.3147L103.851 45.6761L106.872 44.7822C108.408 44.3352 110.008 45.2147 110.455 46.7503C110.902 48.2859 110.023 49.8863 108.494 50.3333L106.007 51.047L100.016 53.4405L94.2197 56.4469L93.4484 56.9515C92.1147 57.831 90.3195 57.4633 89.4472 56.1296C88.5677 54.7959 88.9353 53.0008 90.2691 52.1213ZM130.533 41.8047L131.095 41.8119L137.944 42.4968L144.707 43.8306L148.383 44.9335C149.912 45.3949 150.777 47.0098 150.315 48.5382C149.854 50.0666 148.239 50.9317 146.711 50.4631L143.575 49.5043L137.353 48.2499L131.059 47.5938L130.497 47.5866C128.904 47.5794 127.613 46.2745 127.628 44.6812C127.635 43.088 128.94 41.7975 130.533 41.8047ZM169.744 55.5817L169.896 55.6826L175.476 60.2533L180.659 65.4656L182.851 68.1548C183.86 69.3948 183.666 71.2187 182.426 72.2208C181.178 73.2229 179.362 73.0354 178.359 71.7882L176.55 69.5317L171.799 64.7159L166.688 60.4913L166.529 60.3903C165.203 59.5036 164.849 57.7084 165.736 56.3747C166.616 55.0482 168.418 54.6949 169.744 55.5817ZM194.703 88.8743L195.172 90.035L197.125 96.7324L198.416 103.552L198.704 106.559C198.841 108.152 197.673 109.558 196.08 109.695C194.494 109.839 193.088 108.664 192.944 107.078L192.735 104.619L191.574 98.3473L189.801 92.1833L189.332 91.0226C188.741 89.5375 189.462 87.8578 190.947 87.2666C192.432 86.6755 194.112 87.3964 194.703 88.8743ZM197.133 130.349L197.01 130.984L195.02 137.631L192.389 144.09L190.702 147.298C189.959 148.711 188.207 149.252 186.794 148.502C185.381 147.753 184.848 146.008 185.59 144.595L187.04 141.899L189.483 135.965L191.336 129.859L191.459 129.218C191.776 127.653 193.297 126.637 194.862 126.947C196.426 127.257 197.443 128.785 197.133 130.349ZM176.204 166.266L175.425 167.045C174.293 168.169 172.462 168.169 171.338 167.037C170.206 165.906 170.213 164.075 171.345 162.95L172.124 162.171C173.255 161.047 175.086 161.047 176.211 162.178C177.336 163.31 177.336 165.141 176.204 166.266Z" fill="#151515"/>
<path fill-rule="evenodd" clip-rule="evenodd" d="M104.629 165.391C104.629 164.361 104.521 163.337 104.629 162.342C105.573 155.082 103.18 149.79 97.5422 144.607C83.8445 132.005 80.8599 112.194 88.9199 95.0502C96.468 78.9951 114.434 68.5777 132.075 70.8702C149.37 73.1123 161.965 82.4484 167.984 99.0442C174.35 116.642 170.645 132.647 157.026 145.494C152.355 149.899 150.177 154.239 150.718 160.504C151.115 165.226 151.28 170.085 150.631 174.756C150.148 178.181 148.188 181.396 146.818 184.662C146.255 186.039 145.398 187.279 144.943 188.685C142.362 196.211 114.138 196.673 111.261 189.06C110.591 187.308 108.926 185.952 108.039 184.258C106.748 181.8 105.191 179.262 104.766 176.587C104.204 172.947 104.629 169.14 104.629 165.391Z" stroke="#151515" stroke-width="5.78246" stroke-miterlimit="10" stroke-linecap="round" stroke-linejoin="round"/>
<path d="M104.664 162.113H150.804" stroke="#151515" stroke-width="5.78246" stroke-miterlimit="10" stroke-linecap="round" stroke-linejoin="round"/>
<path d="M106.844 179.41H148.658" stroke="#151515" stroke-width="5.78246" stroke-miterlimit="10" stroke-linecap="round" stroke-linejoin="round"/>
<path d="M137.111 194.551C137.111 198.213 132.901 203.923 127.739 203.923C122.577 203.923 118.367 198.213 118.367 194.551" stroke="#151515" stroke-width="5.78246" stroke-miterlimit="10" stroke-linecap="round" stroke-linejoin="round"/>
<path d="M124.655 162.112L121.98 123.902H133.515L130.841 162.112" stroke="#151515" stroke-width="5.78246" stroke-miterlimit="10" stroke-linecap="round" stroke-linejoin="round"/>
<path fill-rule="evenodd" clip-rule="evenodd" d="M118.819 105.473C121.364 109.258 121.976 124.181 121.976 124.181C121.976 124.181 113.758 125.998 111.191 122.184C108.618 118.37 108.272 111.558 110.362 106.936C112.446 102.308 116.223 101.659 118.79 105.444L118.819 105.473Z" stroke="#151515" stroke-width="5.78246" stroke-miterlimit="10" stroke-linecap="round" stroke-linejoin="round"/>
<path fill-rule="evenodd" clip-rule="evenodd" d="M144.142 122.631C141.539 126.257 133.508 123.799 133.508 123.799C133.508 123.799 134.452 108.811 137.062 105.184C139.665 101.558 143.349 102.51 145.302 107.34C147.249 112.163 146.744 119.004 144.142 122.631Z" stroke="#151515" stroke-width="5.78246" stroke-miterlimit="10" stroke-linecap="round" stroke-linejoin="round"/>
</g>
<defs>
<clipPath id="clip0_3036_9">
<rect width="250" height="250" fill="white"/>
</clipPath>
</defs>
</svg>
