<svg width="61" height="60" viewBox="0 0 61 60" fill="none" xmlns="http://www.w3.org/2000/svg">
<path d="M32.375 16.9969C30.3151 15.8075 28.002 15.1251 25.6264 15.0059C23.2508 14.8866 20.881 15.3341 18.7124 16.3112C16.5438 17.2883 14.6387 18.7672 13.1543 20.6257C11.6698 22.4842 10.6487 24.6691 10.175 27L12.05 27.375C12.4673 25.3414 13.361 23.4358 14.6577 21.8147C15.9545 20.1935 17.6173 18.9031 19.5095 18.0494C21.4018 17.1957 23.4696 16.803 25.5431 16.9036C27.6167 17.0042 29.6367 17.5952 31.4375 18.6281L32.375 16.9969ZM24.875 45C27.5066 45.0017 30.0926 44.3131 32.375 43.0031L31.4375 41.3719C29.6361 42.4086 27.6143 43.0028 25.5384 43.1054C23.4625 43.208 21.3919 42.8162 19.4971 41.9622C17.6023 41.1081 15.9373 39.8163 14.6394 38.193C13.3414 36.5697 12.4475 34.6613 12.0313 32.625L10.1563 33C10.8485 36.3912 12.6922 39.4387 15.3748 41.6258C18.0574 43.8129 21.4138 45.005 24.875 45ZM9.875 30V31.0219L11.75 30.8531C11.7 30.2855 11.7 29.7145 11.75 29.1469L9.875 28.9781V30Z" fill="black"/>
<path d="M3.21886 33.6375C3.08627 33.648 2.95744 33.6866 2.84092 33.7508C2.72441 33.8149 2.62287 33.9031 2.54307 34.0096C2.46326 34.116 2.40701 34.2381 2.37806 34.3679C2.3491 34.4978 2.34809 34.6323 2.37511 34.7625C2.95551 37.5288 4.04941 40.1618 5.60011 42.525C5.67275 42.6355 5.76794 42.7293 5.87942 42.8004C5.99091 42.8715 6.11617 42.9182 6.24699 42.9375C6.37587 42.9573 6.50747 42.9501 6.63338 42.9162C6.75929 42.8823 6.87674 42.8225 6.97824 42.7406C7.68104 42.1815 8.56502 41.9007 9.46163 41.9516C10.3582 42.0025 11.2047 42.3816 11.8398 43.0166C12.4748 43.6516 12.8539 44.4981 12.9048 45.3947C12.9557 46.2913 12.6748 47.1753 12.1157 47.8781C12.0326 47.9807 11.9721 48.0998 11.9382 48.2274C11.9042 48.355 11.8977 48.4884 11.9189 48.6187C11.9394 48.7479 11.9866 48.8713 12.0577 48.9811C12.1287 49.0909 12.2219 49.1846 12.3314 49.2562C14.6988 50.8157 17.3385 51.9161 20.1126 52.5C20.2414 52.527 20.3744 52.5265 20.5031 52.4987C20.6317 52.4708 20.753 52.4162 20.8591 52.3384C20.9652 52.2606 21.0538 52.1613 21.119 52.047C21.1842 51.9327 21.2246 51.8059 21.2376 51.675C21.3292 50.774 21.752 49.939 22.424 49.3318C23.096 48.7247 23.9694 48.3885 24.8751 48.3885C25.7808 48.3885 26.6542 48.7247 27.3262 49.3318C27.9983 49.939 28.421 50.774 28.5126 51.675C28.5249 51.806 28.5646 51.9331 28.6292 52.0477C28.6938 52.1624 28.7819 52.2622 28.8876 52.3406C29.0485 52.4571 29.2422 52.5194 29.4407 52.5187H29.6376C32.4039 51.9383 35.0369 50.8444 37.4001 49.2937C37.5095 49.2221 37.6027 49.1284 37.6738 49.0186C37.7448 48.9088 37.7921 48.7854 37.8126 48.6562C37.8338 48.5259 37.8272 48.3925 37.7933 48.2649C37.7594 48.1373 37.6989 48.0182 37.6157 47.9156C37.0498 47.2158 36.7634 46.3311 36.8119 45.4324C36.8604 44.5337 37.2403 43.6848 37.8782 43.05L37.9532 42.9844L37.4001 42.1875L36.8564 41.4281C36.7492 41.4999 36.6515 41.5849 36.5657 41.6812C35.7289 42.5197 35.1855 43.6062 35.0165 44.7787C34.8476 45.9512 35.0621 47.1469 35.6282 48.1875C33.9366 49.1859 32.1123 49.9402 30.2095 50.4281C29.8674 49.2918 29.1684 48.296 28.2161 47.5881C27.2637 46.8802 26.1086 46.4979 24.922 46.4979C23.7353 46.4979 22.5803 46.8802 21.6279 47.5881C20.6755 48.296 19.9765 49.2918 19.6345 50.4281C17.734 49.9423 15.9125 49.1878 14.2251 48.1875C14.7866 47.139 14.9958 45.9376 14.8217 44.761C14.6477 43.5844 14.0996 42.4951 13.2586 41.654C12.4175 40.813 11.3282 40.2649 10.1516 40.0909C8.97501 39.9168 7.77363 40.126 6.72511 40.6875C5.71991 38.9981 4.96219 37.1733 4.47511 35.2687C5.61139 34.9267 6.60725 34.2277 7.31515 33.2753C8.02304 32.323 8.40531 31.1679 8.40531 29.9812C8.40531 28.7946 8.02304 27.6395 7.31515 26.6872C6.60725 25.7348 5.61139 25.0358 4.47511 24.6937C4.96057 22.7916 5.7184 20.9697 6.72511 19.2844C7.77363 19.8459 8.97501 20.055 10.1516 19.881C11.3282 19.7069 12.4175 19.1589 13.2586 18.3178C14.0996 17.4768 14.6477 16.3874 14.8217 15.2109C14.9958 14.0343 14.7866 12.8329 14.2251 11.7844C15.9104 10.7777 17.7324 10.0198 19.6345 9.53437C19.9765 10.6706 20.6755 11.6665 21.6279 12.3744C22.5803 13.0823 23.7353 13.4646 24.922 13.4646C26.1086 13.4646 27.2637 13.0823 28.2161 12.3744C29.1684 11.6665 29.8674 10.6706 30.2095 9.53437C32.114 10.0214 33.9388 10.7792 35.6282 11.7844C35.0644 12.8239 34.8511 14.0177 35.02 15.1882C35.1889 16.3587 35.731 17.4435 36.5657 18.2812C36.657 18.3755 36.7575 18.4603 36.8657 18.5344L38.0001 17.0531L37.9251 16.9875C37.2872 16.3526 36.9072 15.5038 36.8588 14.6051C36.8103 13.7064 37.0967 12.8217 37.6626 12.1219C37.7445 12.0204 37.8043 11.9029 37.8382 11.777C37.8721 11.6511 37.8793 11.5195 37.8595 11.3906C37.839 11.2615 37.7917 11.138 37.7207 11.0282C37.6496 10.9184 37.5564 10.8247 37.447 10.7531C35.073 9.18472 32.423 8.08083 29.6376 7.49999C29.5088 7.47303 29.3758 7.47349 29.2472 7.50133C29.1186 7.52917 28.9972 7.58378 28.8911 7.6616C28.785 7.73942 28.6965 7.8387 28.6312 7.953C28.566 8.0673 28.5256 8.19404 28.5126 8.32499C28.421 9.22602 27.9983 10.061 27.3262 10.6681C26.6542 11.2753 25.7808 11.6114 24.8751 11.6114C23.9694 11.6114 23.096 11.2753 22.424 10.6681C21.752 10.061 21.3292 9.22602 21.2376 8.32499C21.2246 8.19404 21.1842 8.0673 21.119 7.953C21.0538 7.8387 20.9652 7.73942 20.8591 7.6616C20.753 7.58378 20.6317 7.52917 20.5031 7.50133C20.3744 7.47349 20.2414 7.47303 20.1126 7.49999C17.3448 8.0807 14.7114 9.17799 12.3501 10.7344C12.2407 10.806 12.1475 10.8997 12.0764 11.0095C12.0054 11.1193 11.9581 11.2427 11.9376 11.3719C11.9178 11.5007 11.925 11.6323 11.9589 11.7583C11.9928 11.8842 12.0526 12.0016 12.1345 12.1031C12.6936 12.8059 12.9744 13.6899 12.9235 14.5865C12.8726 15.4831 12.4935 16.3296 11.8585 16.9646C11.2235 17.5997 10.377 17.9788 9.48038 18.0297C8.58377 18.0806 7.69979 17.7997 6.99699 17.2406C6.89549 17.1588 6.77804 17.099 6.65213 17.0651C6.52622 17.0312 6.39462 17.0239 6.26574 17.0437C6.13492 17.063 6.00966 17.1097 5.89817 17.1808C5.78669 17.2519 5.6915 17.3458 5.61886 17.4562C4.0594 19.8237 2.95903 22.4633 2.37511 25.2375C2.34815 25.3663 2.34861 25.4993 2.37645 25.6279C2.40429 25.7566 2.4589 25.8779 2.53672 25.984C2.61454 26.0901 2.71383 26.1786 2.82812 26.2439C2.94242 26.3091 3.06917 26.3495 3.20011 26.3625C4.10114 26.4541 4.93611 26.8769 5.54326 27.5489C6.15042 28.2209 6.48656 29.0943 6.48656 30C6.48656 30.9057 6.15042 31.7791 5.54326 32.4511C4.93611 33.1231 4.10114 33.5459 3.20011 33.6375H3.21886Z" fill="black"/>
<path d="M21.125 26.25C20.8764 26.25 20.6379 26.3488 20.4621 26.5246C20.2863 26.7004 20.1875 26.9389 20.1875 27.1875V36.5625C20.1875 36.8111 20.2863 37.0496 20.4621 37.2254C20.6379 37.4012 20.8764 37.5 21.125 37.5H26.75C26.9986 37.5 27.2371 37.4012 27.4129 37.2254C27.5887 37.0496 27.6875 36.8111 27.6875 36.5625V27.1875C27.6875 26.9389 27.5887 26.7004 27.4129 26.5246C27.2371 26.3488 26.9986 26.25 26.75 26.25H21.125ZM25.8125 35.625H22.0625V28.125H25.8125V35.625ZM37.0625 36.5625V23.4375C37.0625 23.1889 36.9637 22.9504 36.7879 22.7746C36.6121 22.5988 36.3736 22.5 36.125 22.5H30.5C30.2514 22.5 30.0129 22.5988 29.8371 22.7746C29.6613 22.9504 29.5625 23.1889 29.5625 23.4375V36.5625C29.5625 36.8111 29.6613 37.0496 29.8371 37.2254C30.0129 37.4012 30.2514 37.5 30.5 37.5H36.125C36.3736 37.5 36.6121 37.4012 36.7879 37.2254C36.9637 37.0496 37.0625 36.8111 37.0625 36.5625ZM35.1875 35.625H31.4375V24.375H35.1875V35.625ZM39.875 37.5H45.5C45.7486 37.5 45.9871 37.4012 46.1629 37.2254C46.3387 37.0496 46.4375 36.8111 46.4375 36.5625V19.6875C46.4375 19.4389 46.3387 19.2004 46.1629 19.0246C45.9871 18.8488 45.7486 18.75 45.5 18.75H39.875C39.6264 18.75 39.3879 18.8488 39.2121 19.0246C39.0363 19.2004 38.9375 19.4389 38.9375 19.6875V36.5625C38.9375 36.8111 39.0363 37.0496 39.2121 37.2254C39.3879 37.4012 39.6264 37.5 39.875 37.5ZM40.8125 20.625H44.5625V35.625H40.8125V20.625Z" fill="black"/>
<path d="M46.4375 16.875H48.3125V36.5625C48.3125 36.8111 48.4113 37.0496 48.5871 37.2254C48.7629 37.4012 49.0014 37.5 49.25 37.5H54.875C55.1237 37.5 55.3621 37.4012 55.5379 37.2254C55.7137 37.0496 55.8125 36.8111 55.8125 36.5625V16.875H57.6875C57.8616 16.875 58.0323 16.8265 58.1804 16.735C58.3285 16.6435 58.4482 16.5125 58.526 16.3568C58.6039 16.201 58.6369 16.0267 58.6212 15.8533C58.6056 15.6799 58.542 15.5143 58.4375 15.375L52.8125 7.875C52.7252 7.75857 52.612 7.66406 52.4818 7.59897C52.3516 7.53389 52.2081 7.5 52.0625 7.5C51.917 7.5 51.7734 7.53389 51.6433 7.59897C51.5131 7.66406 51.3998 7.75857 51.3125 7.875L45.6875 15.375C45.5832 15.515 45.52 15.6813 45.5051 15.8552C45.4902 16.0291 45.5242 16.2037 45.6031 16.3594C45.681 16.514 45.8002 16.644 45.9475 16.735C46.0948 16.826 46.2644 16.8745 46.4375 16.875ZM52.0625 10.0031L55.8125 15H54.875C54.6264 15 54.3879 15.0988 54.2121 15.2746C54.0363 15.4504 53.9375 15.6889 53.9375 15.9375V35.625H50.1875V15.9375C50.1875 15.6889 50.0887 15.4504 49.9129 15.2746C49.7371 15.0988 49.4987 15 49.25 15H48.3125L52.0625 10.0031Z" fill="black"/>
</svg>
