<svg width="250" height="250" viewBox="0 0 250 250" fill="none" xmlns="http://www.w3.org/2000/svg">
<g clip-path="url(#clip0_3036_118)">
<circle cx="125" cy="125" r="122.5" stroke="#151515" stroke-width="5"/>
<g clip-path="url(#clip1_3036_118)">
<path d="M195.176 79.2377C194.92 78.5916 194.507 78.0192 193.975 77.5722C193.443 77.1251 192.808 76.8174 192.127 76.6767C191.446 76.5358 190.741 76.5663 190.075 76.7656C189.409 76.9648 188.803 77.3266 188.312 77.8183L166.681 99.4494L155.051 96.9489L152.551 85.3193L174.182 63.6879C174.674 63.1963 175.035 62.5904 175.234 61.9245C175.433 61.2586 175.464 60.5537 175.323 59.8731C175.182 59.1925 174.875 58.5575 174.428 58.0252C173.981 57.493 173.409 57.0801 172.763 56.8237C157.912 50.9345 141.017 54.4263 129.723 65.7203C124.286 71.1573 120.552 77.9861 118.926 85.4688C117.537 91.8471 117.726 98.468 119.478 104.756L61.7504 162.484C58.0421 166.192 56 171.122 56 176.367C56 181.611 58.0421 186.541 61.7507 190.25C65.4588 193.958 70.3891 196 75.6334 196C80.8774 196 85.8081 193.958 89.5161 190.25L147.244 132.522C153.532 134.274 160.153 134.463 166.531 133.074C174.014 131.448 180.843 127.714 186.28 122.277C197.574 110.983 201.065 94.0892 195.176 79.2377ZM180.348 116.346C171.793 124.901 158.888 127.829 147.469 123.804C146.723 123.541 145.918 123.494 145.146 123.67C144.375 123.845 143.669 124.235 143.109 124.794L83.5846 184.319C81.4607 186.443 78.6365 187.613 75.6329 187.613C72.629 187.613 69.8053 186.443 67.6812 184.319C65.5573 182.194 64.3874 179.37 64.3874 176.367C64.3874 173.363 65.5573 170.539 67.6814 168.415L127.206 108.89C127.765 108.331 128.155 107.625 128.33 106.854C128.505 106.082 128.459 105.277 128.196 104.531C124.172 93.1124 127.099 80.2065 135.654 71.6518C139.209 68.0934 143.562 65.4353 148.352 63.8988C153.141 62.3622 158.228 61.9915 163.19 62.8176L145.005 81.003C144.509 81.4984 144.146 82.11 143.947 82.7821C143.749 83.4541 143.722 84.1651 143.87 84.8501L147.419 101.361C147.589 102.151 147.983 102.874 148.554 103.445C149.125 104.016 149.849 104.41 150.638 104.58L167.149 108.13C167.834 108.277 168.545 108.25 169.217 108.052C169.89 107.854 170.501 107.49 170.997 106.995L189.182 88.8094C190.008 93.7711 189.637 98.8582 188.1 103.648C186.564 108.437 183.906 112.791 180.348 116.346Z" fill="#151515"/>
</g>
</g>
<defs>
<clipPath id="clip0_3036_118">
<rect width="250" height="250" fill="white"/>
</clipPath>
<clipPath id="clip1_3036_118">
<rect width="142" height="142" fill="white" transform="translate(56 54)"/>
</clipPath>
</defs>
</svg>
