<svg width="250" height="250" viewBox="0 0 250 250" fill="none" xmlns="http://www.w3.org/2000/svg">
<g clip-path="url(#clip0_3036_210)">
<circle cx="125" cy="125" r="122.5" stroke="#151515" stroke-width="5"/>
<path d="M99.2086 213.057C100.056 213.451 101.015 213.537 101.919 213.3C102.823 213.063 103.616 212.519 104.162 211.76L176.508 111.283C176.941 110.682 177.199 109.974 177.254 109.237C177.31 108.499 177.161 107.76 176.824 107.102C176.486 106.443 175.974 105.891 175.343 105.505C174.712 105.119 173.986 104.915 173.247 104.914H137.235L153.031 41.5822C153.257 40.6756 153.161 39.7184 152.758 38.8752C152.355 38.0321 151.671 37.3558 150.823 36.9628C149.064 36.1541 146.992 36.6938 145.869 38.2599L73.5229 138.737C73.0907 139.337 72.8326 140.045 72.777 140.783C72.7214 141.521 72.8704 142.259 73.2076 142.918C73.5448 143.576 74.0572 144.129 74.6883 144.515C75.3195 144.901 76.0448 145.105 76.7846 145.105H112.797L97.0001 208.438C96.7739 209.344 96.8707 210.301 97.2737 211.144C97.6768 211.987 98.361 212.664 99.2086 213.057ZM121.843 142.059C121.991 141.467 122.001 140.849 121.875 140.251C121.748 139.654 121.486 139.093 121.111 138.612C120.735 138.131 120.254 137.742 119.705 137.474C119.157 137.206 118.554 137.067 117.943 137.067H84.6315L140.169 59.9347L128.189 107.96C128.041 108.552 128.03 109.171 128.157 109.768C128.284 110.365 128.545 110.926 128.921 111.407C129.297 111.888 129.778 112.278 130.326 112.545C130.875 112.813 131.478 112.952 132.088 112.952H165.4L109.863 190.085L121.843 142.059Z" fill="#151515"/>
</g>
<defs>
<clipPath id="clip0_3036_210">
<rect width="250" height="250" fill="white"/>
</clipPath>
</defs>
</svg>
