<svg width="61" height="60" viewBox="0 0 61 60" fill="none" xmlns="http://www.w3.org/2000/svg">
<g clip-path="url(#clip0_801_17991)">
<path d="M60.0641 51.1049C59.1837 48.9208 57.7184 47.0216 55.8292 45.6158C53.94 44.21 51.6999 43.3521 49.355 43.1362C47.5745 42.9214 45.7691 43.0652 44.045 43.559C42.5956 41.3662 39.8816 38.8593 34.8809 37.9077C33.9864 32.6716 33.4903 27.3752 33.3969 22.064C36.1074 22.9309 38.9308 23.3937 41.7763 23.4374C45.1649 23.5092 48.4967 22.5599 51.3388 20.713C59.5672 15.2427 60.4644 3.63367 60.5 3.14242C60.5145 2.93457 60.4593 2.72782 60.3432 2.55482C60.227 2.38183 60.0566 2.25244 59.8588 2.18711C59.4219 2.04367 49.0681 -1.29196 40.6869 3.52586C36.8806 5.71398 34.1441 9.24461 32.4838 14.008C32.1559 13.1935 31.7539 12.4109 31.2828 11.6699C31.1921 11.5487 31.0744 11.4502 30.939 11.3824C30.8036 11.3146 30.6542 11.2793 30.5028 11.2793C30.3514 11.2793 30.202 11.3146 30.0666 11.3824C29.9312 11.4502 29.8135 11.5487 29.7228 11.6699C29.2517 12.4109 28.8497 13.1935 28.5219 14.008C26.8597 9.24554 24.125 5.71867 20.3169 3.52586C11.9375 -1.29008 1.58 2.04367 1.14407 2.18711C0.945696 2.25194 0.77463 2.38111 0.657966 2.55415C0.541303 2.72719 0.485713 2.93421 0.500004 3.14242C0.537504 3.63367 1.4375 15.2427 9.66032 20.7121C12.503 22.5599 15.8359 23.5095 19.2256 23.4374C22.071 23.3946 24.8945 22.9325 27.605 22.0659C27.5114 27.3771 27.0149 32.6735 26.12 37.9096C20.9291 38.9071 18.245 41.6352 16.9578 43.5599C15.2335 43.0658 13.4277 42.9217 11.6469 43.1362C9.30197 43.3522 7.06193 44.2101 5.17274 45.6159C3.28355 47.0217 1.81827 48.9209 0.937817 51.1049C0.576774 51.9803 0.437074 52.9312 0.531079 53.8734C0.625084 54.8156 0.949896 55.7202 1.47677 56.507C2.00365 57.2937 2.71634 57.9385 3.55178 58.3843C4.38723 58.83 5.31966 59.0629 6.26657 59.0624H32.375C32.6236 59.0624 32.8621 58.9636 33.0379 58.7878C33.2137 58.612 33.3125 58.3736 33.3125 58.1249C33.3125 57.8763 33.2137 57.6378 33.0379 57.462C32.8621 57.2862 32.6236 57.1874 32.375 57.1874H6.26657C5.62731 57.1879 4.99781 57.0307 4.4338 56.7298C3.86978 56.4289 3.38867 55.9936 3.03305 55.4624C2.67743 54.9312 2.45828 54.3205 2.39501 53.6844C2.33174 53.0483 2.4263 52.4064 2.67032 51.8155C3.42736 49.9453 4.68503 48.3199 6.30526 47.1175C7.9255 45.9152 9.84568 45.1825 11.855 44.9999C13.6055 44.7723 15.3849 44.9566 17.0516 45.538C19.2519 46.3597 21.0662 47.9732 22.1394 50.0624C22.2375 50.2909 22.4223 50.4711 22.6532 50.5633C22.8842 50.6555 23.1423 50.6522 23.3708 50.5541C23.5993 50.456 23.7795 50.2712 23.8717 50.0403C23.9639 49.8093 23.9606 49.5512 23.8625 49.3227C22.7708 47.1124 20.9777 45.326 18.7634 44.2424C20.1144 42.3805 22.5828 40.3452 27.0631 39.6393H27.0763C29.3527 39.2952 31.6679 39.2952 33.9444 39.6393C38.4163 40.3415 40.8819 42.3777 42.2356 44.2405C40.0214 45.3239 38.2286 47.1105 37.1375 49.3209C37.0394 49.5494 37.0361 49.8075 37.1283 50.0384C37.2206 50.2693 37.4007 50.4542 37.6292 50.5523C37.8577 50.6503 38.1158 50.6536 38.3468 50.5614C38.5777 50.4692 38.7625 50.289 38.8606 50.0605C39.9244 47.9647 41.7411 46.3486 43.9466 45.5362C45.6146 44.955 47.3953 44.7713 49.1469 44.9999C51.1575 45.1823 53.0789 45.9156 54.6998 47.1192C56.3207 48.3228 57.5784 49.9501 58.3344 51.8221C58.5759 52.4129 58.6684 53.054 58.6038 53.689C58.5392 54.324 58.3194 54.9333 57.9638 55.4633C57.6083 55.9934 57.1279 56.4278 56.5649 56.7285C56.0019 57.0292 55.3736 57.1867 54.7353 57.1874H44.5625C44.3139 57.1874 44.0754 57.2862 43.8996 57.462C43.7238 57.6378 43.625 57.8763 43.625 58.1249C43.625 58.3736 43.7238 58.612 43.8996 58.7878C44.0754 58.9636 44.3139 59.0624 44.5625 59.0624H54.7344C55.6817 59.0633 56.6147 58.8306 57.4506 58.3848C58.2865 57.9389 58.9995 57.2938 59.5265 56.5066C60.0535 55.7193 60.3782 54.8143 60.4718 53.8716C60.5654 52.9289 60.425 51.9776 60.0631 51.1021L60.0641 51.1049ZM50.3028 19.1512C46.0034 22.0096 40.2988 22.3152 33.3444 20.0793C33.3444 19.8402 33.3369 19.618 33.335 19.408C38.9684 11.9774 53.7913 6.15367 58.4422 4.46523C57.9369 7.64429 56.15 15.2624 50.3028 19.1512ZM41.6094 5.15617C46.6672 2.24992 52.7056 2.65211 56.2513 3.26898C50.9375 5.28273 39.9472 9.93742 33.7813 16.0715C35.2213 10.9968 37.8444 7.32461 41.6094 5.15617ZM19.3822 5.15054C23.1528 7.31804 25.7788 10.9921 27.2206 16.0715C21.0519 9.93742 10.0625 5.27898 4.745 3.26711C8.28125 2.64742 14.315 2.23867 19.3822 5.15054ZM10.7066 19.1568C4.86594 15.2812 3.07063 7.64804 2.5625 4.46523C7.21438 6.15273 22.0316 11.9737 27.6678 19.4071C27.6678 19.6152 27.6631 19.8365 27.6584 20.0793C20.7078 22.3124 15.0059 22.0105 10.7066 19.1568ZM28.0878 37.6199C28.9649 32.0527 29.4423 26.4299 29.5166 20.7946C29.5353 20.1271 29.5447 19.5562 29.5438 19.1071C29.5625 18.2924 29.5625 17.8124 29.5625 17.8124C29.6163 16.5389 29.9356 15.2906 30.5 14.1477C31.065 15.2904 31.3843 16.5388 31.4375 17.8124C31.4375 17.8124 31.4375 18.2896 31.4563 19.0865C31.4563 19.5552 31.4656 20.1252 31.4844 20.7871C31.5583 26.4256 32.0357 32.0515 32.9131 37.6218C31.3082 37.4716 29.6928 37.471 28.0878 37.6199Z" fill="#151515"/>
<path d="M28.1562 50.625C28.5292 50.625 28.8869 50.7732 29.1506 51.0369C29.4143 51.3006 29.5625 51.6583 29.5625 52.0312C29.5625 52.2799 29.6613 52.5183 29.8371 52.6942C30.0129 52.87 30.2514 52.9688 30.5 52.9688C30.7486 52.9688 30.9871 52.87 31.1629 52.6942C31.3387 52.5183 31.4375 52.2799 31.4375 52.0312C31.4375 51.3823 31.2451 50.7479 30.8845 50.2083C30.524 49.6687 30.0115 49.2481 29.4119 48.9998C28.8124 48.7514 28.1526 48.6864 27.5161 48.813C26.8796 48.9397 26.2949 49.2522 25.8361 49.7111C25.3772 50.1699 25.0647 50.7546 24.938 51.3911C24.8114 52.0276 24.8764 52.6874 25.1248 53.2869C25.3731 53.8865 25.7937 54.399 26.3333 54.7595C26.8729 55.1201 27.5073 55.3125 28.1562 55.3125C28.4049 55.3125 28.6433 55.2137 28.8192 55.0379C28.995 54.8621 29.0938 54.6236 29.0938 54.375C29.0938 54.1264 28.995 53.8879 28.8192 53.7121C28.6433 53.5363 28.4049 53.4375 28.1562 53.4375C27.7833 53.4375 27.4256 53.2893 27.1619 53.0256C26.8982 52.7619 26.75 52.4042 26.75 52.0312C26.75 51.6583 26.8982 51.3006 27.1619 51.0369C27.4256 50.7732 27.7833 50.625 28.1562 50.625ZM12.6875 52.5C12.4389 52.5 12.2004 52.5988 12.0246 52.7746C11.8488 52.9504 11.75 53.1889 11.75 53.4375C11.75 53.6861 11.8488 53.9246 12.0246 54.1004C12.2004 54.2762 12.4389 54.375 12.6875 54.375C13.2438 54.375 13.7875 54.21 14.25 53.901C14.7126 53.592 15.073 53.1527 15.2859 52.6388C15.4988 52.1249 15.5545 51.5594 15.446 51.0138C15.3374 50.4682 15.0696 49.9671 14.6762 49.5738C14.2829 49.1804 13.7818 48.9126 13.2362 48.804C12.6906 48.6955 12.1251 48.7512 11.6112 48.9641C11.0973 49.177 10.658 49.5374 10.349 50C10.04 50.4625 9.875 51.0062 9.875 51.5625C9.875 51.8111 9.97377 52.0496 10.1496 52.2254C10.3254 52.4012 10.5639 52.5 10.8125 52.5C11.0611 52.5 11.2996 52.4012 11.4754 52.2254C11.6512 52.0496 11.75 51.8111 11.75 51.5625C11.75 51.3771 11.805 51.1958 11.908 51.0417C12.011 50.8875 12.1574 50.7673 12.3287 50.6964C12.5 50.6254 12.6885 50.6068 12.8704 50.643C13.0523 50.6792 13.2193 50.7685 13.3504 50.8996C13.4815 51.0307 13.5708 51.1977 13.607 51.3796C13.6432 51.5615 13.6246 51.75 13.5536 51.9213C13.4827 52.0926 13.3625 52.239 13.2083 52.342C13.0542 52.445 12.8729 52.5 12.6875 52.5ZM48.3125 50.625C48.5611 50.625 48.7996 50.7238 48.9754 50.8996C49.1512 51.0754 49.25 51.3139 49.25 51.5625C49.25 51.8111 49.3488 52.0496 49.5246 52.2254C49.7004 52.4012 49.9389 52.5 50.1875 52.5C50.4361 52.5 50.6746 52.4012 50.8504 52.2254C51.0262 52.0496 51.125 51.8111 51.125 51.5625C51.125 51.0062 50.96 50.4625 50.651 50C50.342 49.5374 49.9027 49.177 49.3888 48.9641C48.8749 48.7512 48.3094 48.6955 47.7638 48.804C47.2182 48.9126 46.7171 49.1804 46.3238 49.5738C45.9304 49.9671 45.6626 50.4682 45.554 51.0138C45.4455 51.5594 45.5012 52.1249 45.7141 52.6388C45.927 53.1527 46.2874 53.592 46.75 53.901C47.2125 54.21 47.7562 54.375 48.3125 54.375C48.5611 54.375 48.7996 54.2762 48.9754 54.1004C49.1512 53.9246 49.25 53.6861 49.25 53.4375C49.25 53.1889 49.1512 52.9504 48.9754 52.7746C48.7996 52.5988 48.5611 52.5 48.3125 52.5C48.0639 52.5 47.8254 52.4012 47.6496 52.2254C47.4738 52.0496 47.375 51.8111 47.375 51.5625C47.375 51.3139 47.4738 51.0754 47.6496 50.8996C47.8254 50.7238 48.0639 50.625 48.3125 50.625ZM36.125 45C36.125 44.2541 35.8287 43.5387 35.3012 43.0113C34.7738 42.4838 34.0584 42.1875 33.3125 42.1875C33.0639 42.1875 32.8254 42.2863 32.6496 42.4621C32.4738 42.6379 32.375 42.8764 32.375 43.125C32.375 43.3736 32.4738 43.6121 32.6496 43.7879C32.8254 43.9637 33.0639 44.0625 33.3125 44.0625C33.4979 44.0625 33.6792 44.1175 33.8333 44.2205C33.9875 44.3235 34.1077 44.4699 34.1786 44.6412C34.2496 44.8125 34.2682 45.001 34.232 45.1829C34.1958 45.3648 34.1065 45.5318 33.9754 45.6629C33.8443 45.794 33.6773 45.8833 33.4954 45.9195C33.3135 45.9557 33.125 45.9371 32.9537 45.8661C32.7824 45.7952 32.636 45.675 32.533 45.5208C32.43 45.3667 32.375 45.1854 32.375 45C32.375 44.7514 32.2762 44.5129 32.1004 44.3371C31.9246 44.1613 31.6861 44.0625 31.4375 44.0625C31.1889 44.0625 30.9504 44.1613 30.7746 44.3371C30.5988 44.5129 30.5 44.7514 30.5 45C30.5 45.7459 30.7963 46.4613 31.3238 46.9887C31.8512 47.5162 32.5666 47.8125 33.3125 47.8125C34.0584 47.8125 34.7738 47.5162 35.3012 46.9887C35.8287 46.4613 36.125 45.7459 36.125 45ZM40.7759 57.1875H36.0884C35.8398 57.1875 35.6013 57.2863 35.4255 57.4621C35.2497 57.6379 35.1509 57.8764 35.1509 58.125C35.1509 58.3736 35.2497 58.6121 35.4255 58.7879C35.6013 58.9637 35.8398 59.0625 36.0884 59.0625H40.7759C41.0246 59.0625 41.263 58.9637 41.4389 58.7879C41.6147 58.6121 41.7134 58.3736 41.7134 58.125C41.7134 57.8764 41.6147 57.6379 41.4389 57.4621C41.263 57.2863 41.0246 57.1875 40.7759 57.1875Z" fill="#151515"/>
</g>
<defs>
<clipPath id="clip0_801_17991">
<rect width="60" height="60" fill="white" transform="translate(0.5)"/>
</clipPath>
</defs>
</svg>
