<svg width="40" height="40" viewBox="0 0 40 40" fill="none" xmlns="http://www.w3.org/2000/svg">
<path d="M25.1027 25.1178C25.445 25.8453 25.6364 26.6578 25.6364 27.5151C25.6364 30.628 23.1129 33.1514 20.0001 33.1514C16.8873 33.1514 14.3638 30.6279 14.3638 27.5151C14.3638 24.4023 16.8872 21.8788 20.0001 21.8788C21.3423 21.8788 22.5749 22.3479 23.5429 23.1312" stroke="black" stroke-width="1.17187" stroke-miterlimit="10" stroke-linecap="round" stroke-linejoin="round"/>
<path d="M22.5052 13.1112V8.10109H25.0102L20.0001 0.585938L14.99 8.10109H17.495V13.1112M30.6465 17.4949V13.1112H32.5253L28.7677 7.47477L25.0102 13.1112H26.8889V15.6162M9.35368 17.4949V13.1112H7.47485L11.2324 7.47477L14.99 13.1112H13.1113V15.6162M31.8582 26.6108C31.8103 26.062 31.3686 25.6294 30.8197 25.5837L29.4091 25.4661C29.162 24.3261 28.711 23.2641 28.0995 22.3139L29.0164 21.2302C29.3723 20.8098 29.3787 20.1915 29.0245 19.7696C28.8308 19.5381 28.6271 19.3151 28.4139 19.1013C28.2001 18.8881 27.9771 18.6843 27.7456 18.4906C27.3237 18.1365 26.7054 18.1429 26.2849 18.4987L25.2013 19.4156C24.251 18.8041 23.189 18.3531 22.0491 18.106L21.9315 16.6955C21.8857 16.1466 21.4531 15.7048 20.9044 15.657C20.6063 15.6309 20.3051 15.6162 20.0001 15.6162C19.6951 15.6162 19.3938 15.6309 19.0958 15.657C18.547 15.7048 18.1144 16.1466 18.0687 16.6955L17.9511 18.106C16.8111 18.3532 15.7491 18.8041 14.7989 19.4156L13.7152 18.4987C13.2948 18.1429 12.6765 18.1364 12.2546 18.4906C12.0231 18.6844 11.8001 18.8881 11.5863 19.1013C11.3731 19.3151 11.1694 19.5381 10.9756 19.7696C10.6215 20.1915 10.6279 20.8098 10.9838 21.2302L11.9006 22.3139C11.2891 23.2641 10.8381 24.3262 10.591 25.4661L9.18048 25.5837C8.63157 25.6294 8.18985 26.062 8.14196 26.6108C8.11524 26.9115 8.10163 27.2132 8.10118 27.5152C8.10118 27.8202 8.11595 28.1214 8.14196 28.4195C8.18985 28.9682 8.63157 29.4009 9.18048 29.4466L10.591 29.5641C10.8382 30.7041 11.2891 31.7662 11.9006 32.7163L10.9838 33.7999C10.6279 34.2204 10.6215 34.8387 10.9756 35.2606C11.1694 35.4922 11.3731 35.7152 11.5863 35.929C11.8019 36.1446 12.0254 36.3472 12.2546 36.5396C12.6765 36.8938 13.2948 36.8873 13.7152 36.5315L14.7989 35.6146C15.7491 36.2261 16.8112 36.6771 17.9511 36.9242L18.0687 38.3347C18.1145 38.8836 18.547 39.3254 19.0958 39.3732C19.3938 39.3992 19.6951 39.4141 20.0001 39.4141C20.3051 39.4141 20.6063 39.3992 20.9044 39.3732C21.4531 39.3253 21.8858 38.8836 21.9315 38.3347L22.0491 36.9242C23.189 36.677 24.2511 36.2261 25.2013 35.6146L26.2849 36.5315C26.7054 36.8873 27.3237 36.8938 27.7456 36.5396C27.9771 36.3459 28.2001 36.1421 28.4139 35.929C28.627 35.7152 28.8308 35.4922 29.0245 35.2606C29.3787 34.8387 29.3723 34.2205 29.0164 33.7999L28.0995 32.7163C28.711 31.7661 29.162 30.7041 29.4091 29.5641L30.8197 29.4466C31.3686 29.4008 31.8103 28.9682 31.8582 28.4195C31.8849 28.1188 31.8985 27.817 31.899 27.5152C31.899 27.2101 31.8842 26.9089 31.8582 26.6108Z" stroke="black" stroke-width="1.17187" stroke-miterlimit="10" stroke-linecap="round" stroke-linejoin="round"/>
</svg>
