<svg width="250" height="250" viewBox="0 0 250 250" fill="none" xmlns="http://www.w3.org/2000/svg">
<g clip-path="url(#clip0_3036_261)">
<circle cx="125" cy="125" r="122.5" stroke="#151515" stroke-width="5"/>
<path fill-rule="evenodd" clip-rule="evenodd" d="M100.827 197.639C73.5021 197.407 42.3401 176.249 44.88 137.56C46.9861 105.625 96.3542 57.9684 100.278 51.8281H101.375C105.299 57.9684 154.667 105.625 156.774 137.59C159.313 176.279 128.151 197.437 100.827 197.668V197.639Z" stroke="#151515" stroke-width="5.99877" stroke-miterlimit="10" stroke-linecap="round" stroke-linejoin="round"/>
<path d="M135.972 140.828C130.673 160.827 117.513 171.529 100.82 176.727" stroke="#151515" stroke-width="5.99877" stroke-miterlimit="10" stroke-linecap="round" stroke-linejoin="round"/>
<path d="M213.56 105.05C213.339 104.492 212.982 103.997 212.523 103.611C212.063 103.225 211.514 102.959 210.927 102.838C210.339 102.716 209.73 102.742 209.154 102.914C208.579 103.086 208.056 103.399 207.631 103.824L188.947 122.508L178.901 120.348L176.742 110.303L195.426 91.6181C195.851 91.1935 196.163 90.6701 196.335 90.095C196.507 89.5198 196.533 88.9109 196.412 88.323C196.29 87.7351 196.024 87.1867 195.638 86.7269C195.252 86.2671 194.758 85.9105 194.2 85.689C181.372 80.6021 166.779 83.6182 157.023 93.3737C152.327 98.07 149.102 103.968 147.697 110.432C146.497 115.941 146.661 121.66 148.174 127.092L98.3108 176.955C95.1076 180.158 93.3438 184.417 93.3438 188.947C93.3438 193.477 95.1076 197.736 98.3111 200.939C101.514 204.142 105.773 205.906 110.303 205.906C114.832 205.906 119.091 204.142 122.294 200.939L172.158 151.075C177.589 152.588 183.308 152.752 188.817 151.552C195.281 150.147 201.179 146.922 205.876 142.226C215.631 132.47 218.647 117.878 213.56 105.05ZM200.752 137.103C193.363 144.492 182.216 147.021 172.352 143.545C171.708 143.318 171.012 143.277 170.346 143.429C169.68 143.58 169.07 143.917 168.586 144.4L117.171 195.815C115.336 197.65 112.897 198.661 110.302 198.661C107.707 198.661 105.268 197.65 103.434 195.815C101.599 193.981 100.589 191.541 100.589 188.947C100.589 186.353 101.599 183.913 103.434 182.078L154.849 130.663C155.333 130.18 155.669 129.57 155.821 128.903C155.972 128.237 155.932 127.542 155.705 126.897C152.228 117.034 154.757 105.886 162.146 98.4972C165.217 95.4235 168.977 93.1275 173.114 91.8003C177.251 90.473 181.646 90.1528 185.931 90.8664L170.223 106.574C169.795 107.002 169.481 107.531 169.31 108.111C169.139 108.692 169.116 109.306 169.243 109.897L172.309 124.159C172.456 124.841 172.796 125.466 173.289 125.959C173.782 126.452 174.407 126.793 175.089 126.939L189.351 130.006C189.943 130.133 190.557 130.11 191.138 129.939C191.718 129.767 192.247 129.453 192.675 129.025L208.382 113.317C209.096 117.603 208.775 121.997 207.448 126.134C206.121 130.271 203.825 134.032 200.752 137.103Z" fill="#151515"/>
</g>
<defs>
<clipPath id="clip0_3036_261">
<rect width="250" height="250" fill="white"/>
</clipPath>
</defs>
</svg>
